<svg xmlns="http://www.w3.org/2000/svg" version="1.1" xmlns:xlink="http://www.w3.org/1999/xlink" xmlns:svgjs="http://svgjs.dev/svgjs" width="1500" height="1500" viewBox="0 0 1500 1500"><rect width="1500" height="1500" fill="#f9f9f9"></rect><g transform="matrix(0.6666666666666666,0,0,0.6666666666666666,249.39393939393938,591.2679134103657)"><svg viewBox="0 0 396 125" data-background-color="#f9f9f9" preserveAspectRatio="xMidYMid meet" height="473" width="1500" xmlns="http://www.w3.org/2000/svg" xmlns:xlink="http://www.w3.org/1999/xlink"><g id="tight-bounds" transform="matrix(1,0,0,1,0.2400000000000091,0.42233876438993434)"><svg viewBox="0 0 395.52 124.1553224712201" height="124.1553224712201" width="395.52"><g><svg viewBox="0 0 553.0779890795078 173.61341041135782" height="124.1553224712201" width="395.52"><g transform="matrix(1,0,0,1,0,23.994328066982163)"><svg viewBox="0 0 395.52 125.62475427739349" height="125.62475427739349" width="395.52"><g id="textblocktransform"><svg viewBox="0 0 395.52 125.62475427739349" height="125.62475427739349" width="395.52" id="textblock"><g><svg viewBox="0 0 395.52 125.62475427739349" height="125.62475427739349" width="395.52"><g transform="matrix(1,0,0,1,0,0)"><svg width="395.52" viewBox="4.25 -54.4 274.67 87.25" height="125.62475427739349" data-palette-color="#030303"><path d="M19.45 0.75Q14.75 0.75 11.33-1.13 7.9-3 6.08-6.58 4.25-10.15 4.25-15.05L4.25-15.05Q4.25-20.7 6.63-25.48 9-30.25 13.43-33.1 17.85-35.95 23.75-35.95L23.75-35.95Q30.75-35.95 34.7-31.88 38.65-27.8 38.65-20.4L38.65-20.4Q38.65-14.8 36.35-9.95 34.05-5.1 29.7-2.18 25.35 0.75 19.45 0.75L19.45 0.75ZM19.15-1.5Q24.05-1.5 27.78-4 31.5-6.5 33.52-10.85 35.55-15.2 35.55-20.5L35.55-20.5Q35.55-27 32.5-30.43 29.45-33.85 23.8-33.85L23.8-33.85Q18.8-33.85 15.08-31.23 11.35-28.6 9.35-24.2 7.35-19.8 7.35-14.7L7.35-14.7Q7.35-8.4 10.43-4.95 13.5-1.5 19.15-1.5L19.15-1.5ZM68.4-10.25Q69.15-9.8 69.15-8.75L69.15-8.75Q69.15-8.15 68.92-7.7 68.7-7.25 68.3-6.75L68.3-6.75Q65.85-3.8 61.9-2.23 57.95-0.65 54.52-0.18 51.1 0.3 48.95 0.3L48.95 0.3Q47.65 0.3 47.15 0.05 46.65-0.2 46.65-0.95L46.65-0.95Q46.65-1.35 46.8-1.8L46.8-1.8Q48.2-1.55 48.75-1.55L48.75-1.55Q51.25-1.55 52.9-3.43 54.55-5.3 55.47-7.93 56.4-10.55 57.35-14.4L57.35-14.4Q57.5-14.85 57.7-15.75L57.7-15.75Q57.7-16.4 56.67-17.35 55.65-18.3 54.95-18.3L54.95-18.3Q54.3-18.3 52.9-17.48 51.5-16.65 50.17-15.08 48.85-13.5 48.25-11.45L48.25-11.45Q46.8-6.35 45.77-1.95 44.75 2.45 43.5 8.35L43.5 8.35Q40.9 20.55 38.9 28.35L38.9 28.35Q38.55 29.7 38 30.38 37.45 31.05 36.7 31.33 35.95 31.6 34.25 31.95L34.25 31.95Q32.1 32.35 30.35 32.85L30.35 32.85 29.8 32.6Q32.6 31.35 33.9 30.2 35.2 29.05 35.85 27.38 36.5 25.7 37.5 21.7L37.5 21.7Q43.9-3.45 48.9-24.55L48.9-24.55Q49-25 49.2-25.18 49.4-25.35 49.7-25.45L49.7-25.45Q50.2-25.65 50.9-25.98 51.6-26.3 51.85-26.35L51.85-26.35Q52-26.3 52.3-25.9L52.3-25.9Q52.2-25.55 52.05-25.35L52.05-25.35Q51.65-24.45 50.05-18.9L50.05-18.9Q49.6-17.4 49.5-17.05L49.5-17.05Q50.85-18.6 52.72-19.8 54.6-21 55.7-21L55.7-21Q56.6-21 57.8-20.18 59-19.35 59.85-18.2 60.7-17.05 60.7-16.1L60.7-16.1 60.1-13.8Q59.35-10.75 58.67-8.7 58-6.65 56.7-4.75 55.4-2.85 53.4-1.7L53.4-1.7Q56.35-2.1 58.65-2.9 60.95-3.7 63.35-5.43 65.75-7.15 68.4-10.25L68.4-10.25ZM87.55-11.95Q88.45-11.8 88.45-10.95L88.45-10.95Q88.45-8.95 85.87-6.28 83.3-3.6 79.8-1.68 76.3 0.25 73.95 0.25L73.95 0.25Q71.7 0.25 70.05-0.93 68.4-2.1 67.52-3.55 66.65-5 66.65-5.7L66.65-5.7Q67.45-8.55 68.4-13.6L68.4-13.6 68.95-16.4Q69.15-17.4 70.4-18.48 71.65-19.55 73.2-20.28 74.75-21 75.7-21L75.7-21Q76.45-21 77.52-20.53 78.6-20.05 79.42-19.05 80.25-18.05 80.25-16.5L80.25-16.5Q80.25-14.7 79.05-13.1 77.85-11.5 75.5-10.5 73.15-9.5 69.85-9.5L69.85-9.5 69.15-6.15Q69.15-5.7 69.67-4.65 70.2-3.6 71.37-2.75 72.55-1.9 74.35-1.9L74.35-1.9Q76.75-1.9 79.4-3.48 82.05-5.05 84.25-7.4 86.45-9.75 87.55-11.95L87.55-11.95ZM75.3-18.95Q74.7-18.95 73.75-18.45 72.8-17.95 72.02-17.2 71.25-16.45 71.1-15.8L71.1-15.8Q70.6-13.55 70.2-11.25L70.2-11.25Q74.05-11.4 76-12.78 77.95-14.15 77.95-15.9L77.95-15.9Q77.95-17.15 77.05-18.05 76.15-18.95 75.3-18.95L75.3-18.95ZM109.64-12.2Q110.14-12.2 110.37-11.78 110.59-11.35 110.59-10.8L110.59-10.8Q110.59-9 108.69-6.25 106.79-3.5 103.87-1.45 100.94 0.6 98.09 0.6L98.09 0.6Q96.29 0.6 95.32-0.3 94.34-1.2 94.34-3.05L94.34-3.05Q94.34-5.6 95.74-9.98 97.14-14.35 98.29-17.25L98.29-17.25Q98.09-17.55 97.89-17.55L97.89-17.55Q97.69-17.55 97.44-17.4L97.44-17.4Q96.54-16.85 94.49-14.95 92.44-13.05 90.49-10.95 88.54-8.85 87.84-7.55L87.84-7.55Q87.04-5.4 86.84-4.83 86.64-4.25 86.44-2.95L86.44-2.95 85.99-0.7Q85.94-0.55 85.89-0.33 85.84-0.1 85.77-0.05 85.69 0 85.54 0L85.54 0Q85.09 0 84.37-0.1 83.64-0.2 83.64-0.4L83.64-0.4Q83.64-1 83.99-2.35 84.34-3.7 84.69-4.8 85.04-5.9 85.24-6.5L85.24-6.5 85.69-7.9Q87.14-12.9 87.67-15.18 88.19-17.45 88.69-20.25L88.69-20.25Q88.74-20.75 89.39-20.75L89.39-20.75Q89.84-20.75 90.42-20.53 90.99-20.3 91.09-19.9L91.09-19.9Q90.89-19 90.37-16.85 89.84-14.7 89.09-12.1L89.09-12.1Q91.99-15.35 95.12-18 98.24-20.65 99.29-20.65L99.29-20.65Q99.79-20.65 100.49-20.15 101.19-19.65 101.34-19.2L101.34-19.2Q99.74-14.9 98.29-9.83 96.84-4.75 96.84-3.15L96.84-3.15Q96.84-1.4 98.84-1.4L98.84-1.4Q101.79-1.4 104.82-4.7 107.84-8 109.64-12.2L109.64-12.2ZM186.34 3.45Q186.59 3.6 186.76 4 186.94 4.4 186.94 4.8L186.94 4.8Q186.94 6.2 185.16 7.33 183.39 8.45 180.56 9.08 177.74 9.7 174.74 9.7L174.74 9.7Q167.99 9.7 159.61 6.45 151.24 3.2 143.41-2.6 135.59-8.4 130.49-15.6L130.49-15.6Q128.64-8 127.19-1.25L127.19-1.25Q126.99-0.45 126.76-0.25 126.54-0.05 125.94 0L125.94 0Q125.09 0.05 124.59 0.18 124.09 0.3 123.74 0.6L123.74 0.6Q123.19 0.6 123.19 0.25L123.19 0.25Q124.99-4.15 126.91-11.45 128.84-18.75 130.26-25.38 131.69-32 131.69-32.7L131.69-32.7Q131.69-32.85 131.56-33.02 131.44-33.2 131.14-33.2L131.14-33.2Q130.24-33.2 125.99-32.95L125.99-32.95Q123.29-32.75 122.59-32.75L122.59-32.75Q121.79-32.75 121.54-32.88 121.29-33 121.29-33.4L121.29-33.4Q121.29-34.15 121.66-35.23 122.04-36.3 122.59-36.3L122.59-36.3Q122.69-35.45 124.39-35.2 126.09-34.95 128.89-34.95L128.89-34.95Q131.09-34.95 132.96-35.08 134.84-35.2 136.54-35.35L136.54-35.35 139.29-35.6Q139.29-34.85 138.99-33.5L138.99-33.5 135.44-33.4Q135.14-33.4 134.89-33.23 134.64-33.05 134.59-32.75L134.59-32.75Q133.04-26.4 130.99-17.75L130.99-17.75Q133.44-19.55 140.19-25L140.19-25Q144.69-28.65 147.94-31.18 151.19-33.7 154.54-35.9L154.54-35.9 154.84-35.9Q155.84-35.35 157.39-34.85L157.39-34.85 157.39-34.45Q156.24-34.65 147.21-28 138.19-21.35 132.39-16.65L132.39-16.65Q137.89-9.3 145.14-3.78 152.39 1.75 160.04 4.73 167.69 7.7 174.39 7.7L174.39 7.7Q177.39 7.7 179.56 7.13 181.74 6.55 183.19 5.68 184.64 4.8 186.34 3.45L186.34 3.45ZM164.29 0.35Q162.54 0.35 161.16-0.83 159.79-2 159.79-4.3L159.79-4.3Q160.54-6.7 162.39-14.95L162.39-14.95Q163.29-19 163.49-19.8L163.49-19.8Q164.14-20.9 165.29-20.9L165.29-20.9Q166.04-20.9 166.04-20.4L166.04-20.4Q165.69-19.15 165.06-16.43 164.44-13.7 164.09-12.15L164.09-12.15Q162.74-5.95 162.24-4.2L162.24-4.2Q162.24-3.05 162.91-2.43 163.59-1.8 164.69-1.8L164.69-1.8Q167.19-1.8 169.71-3.58 172.24-5.35 174.16-7.7 176.09-10.05 177.04-11.75L177.04-11.75Q177.34-11.65 177.44-11.43 177.54-11.2 177.54-10.65L177.54-10.65Q177.54-9.9 177.04-9.1L177.04-9.1Q174.34-4.85 170.99-2.25 167.64 0.35 164.29 0.35L164.29 0.35ZM166.59-27.15Q165.89-27.15 165.49-27.63 165.09-28.1 165.09-28.85L165.09-28.85Q165.09-29.85 165.74-30.68 166.39-31.5 167.39-31.5L167.39-31.5Q168.19-31.5 168.56-31 168.94-30.5 168.94-29.8L168.94-29.8Q168.94-28.8 168.26-27.98 167.59-27.15 166.59-27.15L166.59-27.15ZM193.73-8.3Q193.98-7.95 193.98-7.45L193.98-7.45Q193.98-7.05 193.83-6.75 193.68-6.45 193.33-6L193.33-6Q192.03-4.45 189.71-2.93 187.38-1.4 184.83-0.45 182.28 0.5 180.38 0.5L180.38 0.5Q178.23 0.5 176.81-0.83 175.38-2.15 175.38-4.8L175.38-4.8Q175.38-8.15 177.78-17.4L177.78-17.4 172.48-17.2Q172.38-17.25 172.21-17.38 172.03-17.5 171.98-17.6L171.98-17.6Q172.13-17.85 172.53-18.6 172.93-19.35 173.23-19.65L173.23-19.65 178.38-19.6Q180.03-25.7 182.18-32.15L182.18-32.15Q183.08-32.85 184.48-33.68 185.88-34.5 186.18-34.5L186.18-34.5Q186.63-34.3 186.73-33.95L186.73-33.95Q185.83-33.6 185.33-33.02 184.83-32.45 184.33-31.15L184.33-31.15Q182.88-27.45 180.83-19.6L180.83-19.6 193.58-19.55 193.63-18.75Q193.63-18.35 193.48-18.2 193.33-18.05 192.78-18L192.78-18Q192.08-17.95 180.28-17.5L180.28-17.5Q177.98-8.1 177.98-4.95L177.98-4.95Q177.98-3.2 178.83-2.38 179.68-1.55 181.43-1.55L181.43-1.55Q186.53-1.55 193.73-8.3L193.73-8.3ZM199.08 0.25Q196.48 0.25 194.83-0.98 193.18-2.2 192.43-3.68 191.68-5.15 191.68-5.7L191.68-5.7Q193.18-11.35 194.28-16.9L194.28-16.9Q194.48-17.9 195.56-18.78 196.63-19.65 198.06-20.2 199.48-20.75 200.58-20.75L200.58-20.75Q201.68-20.75 202.86-20.2 204.03-19.65 204.83-18.8 205.63-17.95 205.63-17L205.63-17Q205.63-15.6 204.28-14.55L204.28-14.55 204.03-14.6Q203.93-16.25 202.86-17.43 201.78-18.6 200.43-18.6L200.43-18.6Q199.28-18.6 197.93-17.82 196.58-17.05 196.38-16.05L196.38-16.05Q195.58-11.85 195.13-9.8L195.13-9.8 194.33-6.05Q194.33-5.4 194.91-4.42 195.48-3.45 196.63-2.73 197.78-2 199.48-2L199.48-2Q201.28-2 203.76-2.88 206.23-3.75 208.73-6.03 211.23-8.3 212.78-12.1L212.78-12.1Q213.28-12.1 213.43-11.75 213.58-11.4 213.58-10.8L213.58-10.8Q213.58-8.5 211.26-5.9 208.93-3.3 205.51-1.53 202.08 0.25 199.08 0.25L199.08 0.25ZM237.18-54.4Q241.48-54.4 243.98-52.03 246.48-49.65 246.48-45.35L246.48-45.35 246.13-44.75Q245.03-48.15 242.68-49.78 240.33-51.4 237.03-51.4L237.03-51.4Q230.08-51.4 225.23-43.58 220.38-35.75 216.83-21L216.83-21 215.53-15.35 214.88-12.45Q216.93-15.35 220.08-18.07 223.23-20.8 224.83-20.8L224.83-20.8Q225.23-20.8 226-20.05 226.78-19.3 226.78-18.95L226.78-18.95Q225.83-16.2 224.53-10.9 223.23-5.6 223.23-4.15L223.23-4.15Q223.23-2.75 223.68-2.13 224.13-1.5 225.53-1.5L225.53-1.5Q228.03-1.5 230.38-3.4 232.73-5.3 234.45-7.73 236.18-10.15 237.08-12L237.08-12Q237.43-11.9 237.63-11.65 237.83-11.4 237.88-10.9L237.88-10.9 237.88-10.75Q237.88-10.15 237.48-9.35L237.48-9.35Q235.18-5.15 231.58-2.27 227.98 0.6 224.58 0.6L224.58 0.6Q222.83 0.6 221.78-0.5 220.73-1.6 220.73-3.6L220.73-3.6Q220.73-5.55 221.35-8.4 221.98-11.25 223.03-15.1L223.03-15.1Q222.98-14.85 223.58-17.15L223.58-17.15Q223.53-17.35 223.33-17.5 223.13-17.65 222.98-17.65L222.98-17.65Q222.48-17.65 220.63-16 218.78-14.35 216.88-12.05 214.98-9.75 214.03-7.75L214.03-7.75Q213.53-5.75 213.03-2.75L213.03-2.75Q212.98-2.4 212.93-2 212.88-1.6 212.78-1.2L212.78-1.2Q212.63-0.3 212.5 0.03 212.38 0.35 212.08 0.35L212.08 0.35Q211.48 0.35 210.73 0.05 209.98-0.25 209.98-0.7L209.98-0.7Q209.98-1.35 210.28-2.6L210.28-2.6 214.63-21.05Q218.28-36.65 223.93-45.53 229.58-54.4 237.18-54.4L237.18-54.4ZM255.88-11.95Q256.78-11.8 256.78-10.95L256.78-10.95Q256.78-8.95 254.2-6.28 251.63-3.6 248.13-1.68 244.63 0.25 242.28 0.25L242.28 0.25Q240.03 0.25 238.38-0.93 236.73-2.1 235.85-3.55 234.98-5 234.98-5.7L234.98-5.7Q235.78-8.55 236.73-13.6L236.73-13.6 237.28-16.4Q237.48-17.4 238.73-18.48 239.98-19.55 241.53-20.28 243.08-21 244.03-21L244.03-21Q244.78-21 245.85-20.53 246.93-20.05 247.75-19.05 248.58-18.05 248.58-16.5L248.58-16.5Q248.58-14.7 247.38-13.1 246.18-11.5 243.83-10.5 241.48-9.5 238.18-9.5L238.18-9.5 237.48-6.15Q237.48-5.7 238-4.65 238.53-3.6 239.7-2.75 240.88-1.9 242.68-1.9L242.68-1.9Q245.08-1.9 247.73-3.48 250.38-5.05 252.58-7.4 254.78-9.75 255.88-11.95L255.88-11.95ZM243.63-18.95Q243.03-18.95 242.08-18.45 241.13-17.95 240.35-17.2 239.58-16.45 239.43-15.8L239.43-15.8Q238.93-13.55 238.53-11.25L238.53-11.25Q242.38-11.4 244.33-12.78 246.28-14.15 246.28-15.9L246.28-15.9Q246.28-17.15 245.38-18.05 244.48-18.95 243.63-18.95L243.63-18.95ZM277.97-12.2Q278.47-12.2 278.7-11.78 278.92-11.35 278.92-10.8L278.92-10.8Q278.92-9 277.02-6.25 275.12-3.5 272.2-1.45 269.27 0.6 266.42 0.6L266.42 0.6Q264.62 0.6 263.65-0.3 262.67-1.2 262.67-3.05L262.67-3.05Q262.67-5.6 264.07-9.98 265.47-14.35 266.62-17.25L266.62-17.25Q266.42-17.55 266.22-17.55L266.22-17.55Q266.02-17.55 265.77-17.4L265.77-17.4Q264.87-16.85 262.82-14.95 260.77-13.05 258.82-10.95 256.87-8.85 256.17-7.55L256.17-7.55Q255.37-5.4 255.17-4.83 254.97-4.25 254.77-2.95L254.77-2.95 254.32-0.7Q254.27-0.55 254.22-0.33 254.17-0.1 254.1-0.05 254.02 0 253.87 0L253.87 0Q253.42 0 252.7-0.1 251.97-0.2 251.97-0.4L251.97-0.4Q251.97-1 252.32-2.35 252.67-3.7 253.02-4.8 253.37-5.9 253.57-6.5L253.57-6.5 254.02-7.9Q255.47-12.9 256-15.18 256.52-17.45 257.02-20.25L257.02-20.25Q257.07-20.75 257.72-20.75L257.72-20.75Q258.17-20.75 258.75-20.53 259.32-20.3 259.42-19.9L259.42-19.9Q259.22-19 258.7-16.85 258.17-14.7 257.42-12.1L257.42-12.1Q260.32-15.35 263.45-18 266.57-20.65 267.62-20.65L267.62-20.65Q268.12-20.65 268.82-20.15 269.52-19.65 269.67-19.2L269.67-19.2Q268.07-14.9 266.62-9.83 265.17-4.75 265.17-3.15L265.17-3.15Q265.17-1.4 267.17-1.4L267.17-1.4Q270.12-1.4 273.15-4.7 276.17-8 277.97-12.2L277.97-12.2Z" opacity="1" transform="matrix(1,0,0,1,0,0)" fill="#030303" class="wordmark-text-0" data-fill-palette-color="primary" id="text-0"></path></svg></g></svg></g></svg></g></svg></g><g transform="matrix(1,0,0,1,425.17698949078994,0)"><svg viewBox="0 0 127.90099958871788 173.61341041135782" height="173.61341041135782" width="127.90099958871788"><g><svg xmlns="http://www.w3.org/2000/svg" xmlns:xlink="http://www.w3.org/1999/xlink" version="1.1" x="0" y="0" viewBox="13.164999920126803 0 73.67000007987319 100" enable-background="new 0 0 100 100" xml:space="preserve" height="173.61341041135782" width="127.90099958871788" class="icon-icon-0" data-fill-palette-color="accent" id="icon-0"><g fill="#030303" data-fill-palette-color="accent"><rect x="19.438" y="51.35" fill="#030303" width="56.963" height="11.562" data-fill-palette-color="accent"></rect><path fill="#030303" d="M76.645 13.328L76.634 13.329C76.642 13.154 76.661 12.981 76.661 12.806 76.661 5.732 70.929 0 63.858 0 59.286 0 55.282 2.405 53.017 6.013A11.13 11.13 0 0 0 44.584 2.154C39.303 2.154 34.889 5.821 33.721 10.744A9.5 9.5 0 0 0 27.144 8.102 9.537 9.537 0 0 0 17.606 17.639C17.606 18.522 17.736 19.373 17.96 20.186 15.212 20.852 13.165 23.312 13.165 26.265A6.27 6.27 0 0 0 19.436 32.536H19.437V49.389H76.4V33.697C76.481 33.699 76.562 33.711 76.644 33.711 82.273 33.711 86.835 29.148 86.835 23.52S82.273 13.328 76.645 13.328" data-fill-palette-color="accent"></path><path fill="#030303" d="M75.833 85.259C75.609 85.177 75.622 85.53 75.292 86.488 74.016 90.515 70.751 91.763 69.003 91.763S65.05 90.965 62.952 87.295C60.855 83.625 58.059 79.868 53.515 79.868 49.422 79.868 48.028 82.199 47.789 82.665 47.551 82.199 46.156 79.868 42.064 79.868 37.52 79.868 34.724 83.625 32.626 87.295S28.321 91.763 26.575 91.763C24.827 91.763 21.561 90.515 20.286 86.488 19.956 85.527 19.97 85.176 19.747 85.259 19.63 85.302 19.622 85.608 19.683 86.252 19.743 86.896 21.706 100 34.6 100 41.776 100 47.569 96.588 47.569 89.938 47.569 89.938 47.561 89.696 47.791 89.667 48.02 89.695 48.014 89.938 48.014 89.938 48.014 96.588 53.809 100 60.983 100 73.878 100 75.838 86.896 75.9 86.252 75.954 85.607 75.947 85.302 75.833 85.259" data-fill-palette-color="accent"></path></g></svg></g></svg></g></svg></g><defs></defs></svg><rect width="395.52" height="124.1553224712201" fill="none" stroke="none" visibility="hidden"></rect></g></svg></g></svg>